<svg width="1501" height="1501" viewBox="0 0 1501 1501" fill="none" xmlns="http://www.w3.org/2000/svg">
<path d="M750.344 0.961914C419.359 0.961914 138.432 215.397 38.9346 512.899C64.487 533.818 159.551 594.091 376.766 560.061C637.154 519.266 911.927 323.988 999.677 643.129C1087.43 962.251 926.312 981.199 816.975 1001.61C710.986 1021.37 345.227 1074.06 228.707 1289.84C363.709 1420.53 547.608 1500.96 750.344 1500.96C1164.55 1500.96 1500.31 1165.17 1500.31 750.962C1500.31 336.758 1164.55 0.961914 750.344 0.961914ZM779.114 1405.71C548.936 1405.71 495.194 1349.4 495.194 1349.4C495.194 1349.4 655.86 1298.86 726.344 1274.1C796.828 1249.33 904.725 1231.84 989.613 1199.78C1074.48 1167.72 1320.49 1059.89 1313.3 765.533C1306.1 471.176 1091.77 220.531 832.819 227.826C573.871 235.121 418.967 342.064 238.21 338.161C238.21 338.161 441.507 79.7667 757.022 79.7667C1072.54 79.7667 1396.73 352.618 1396.73 777.243C1396.73 1201.87 1009.29 1405.71 779.114 1405.71ZM120.699 576.091L14.3548 605.763C5.15143 652.735 0.306558 701.299 0.306553 750.962C0.306531 931.65 64.2438 1097.43 170.7 1226.88L281.814 1195.41C281.814 1195.41 61.6998 1003.07 120.699 576.091Z" fill="#0068F8"/>
</svg>
