<svg width="45" height="44" viewBox="0 0 45 44" fill="none" xmlns="http://www.w3.org/2000/svg">
<path d="M22.79 0C12.9878 0 4.66803 6.29008 1.72137 15.0168C2.47812 15.6304 5.29348 17.3985 11.7264 16.4002C19.4379 15.2036 27.5754 9.47542 30.1741 18.8369C32.7729 28.1978 28.0014 28.7536 24.7633 29.3522C21.6245 29.9319 10.7924 31.4776 7.34157 37.8072C11.3397 41.6406 16.7859 44 22.79 44C35.057 44 45.0005 34.15 45.0005 22C45.0005 9.85003 35.057 0 22.79 0ZM23.6421 41.2059C16.8253 41.2059 15.2337 39.5541 15.2337 39.5541C15.2337 39.5541 19.9919 38.0717 22.0793 37.3453C24.1667 36.6189 27.3621 36.1059 29.8761 35.1654C32.3895 34.225 39.675 31.0619 39.4623 22.4274C39.249 13.7929 32.9014 6.44071 25.2326 6.65469C17.5637 6.86868 12.9762 10.0057 7.62299 9.89116C7.62299 9.89116 13.6437 2.31161 22.9878 2.31161C32.3319 2.31161 41.933 10.3152 41.933 22.7709C41.933 35.2266 30.4589 41.2059 23.6421 41.2059ZM4.14285 16.8704L0.993437 17.7408C0.720875 19.1187 0.577393 20.5432 0.577393 22C0.577393 27.3002 2.47092 32.163 5.62366 35.9602L8.91434 35.037C8.91434 35.037 2.39558 29.395 4.14285 16.8704Z" fill="white"/>
</svg>
