<svg width="51" height="50" viewBox="0 0 51 50" fill="none" xmlns="http://www.w3.org/2000/svg">
<g id="Logo">
<path id="Vector" d="M25.3246 0C14.1491 0 4.66373 7.14782 1.30425 17.0646C2.16702 17.7619 5.37681 19.771 12.7109 18.6366C21.5028 17.2768 30.7804 10.7675 33.7432 21.4056C36.7061 32.043 31.2661 32.6746 27.5744 33.3548C23.9957 34.0136 11.6461 35.77 7.71183 42.9627C12.2701 47.3189 18.4794 50 25.3246 50C39.3101 50 50.6467 38.8068 50.6467 25C50.6467 11.1932 39.3101 0 25.3246 0ZM26.296 46.8249C18.5242 46.8249 16.7096 44.9478 16.7096 44.9478C16.7096 44.9478 22.1344 43.2634 24.5143 42.4379C26.8942 41.6123 30.5372 41.0294 33.4034 39.9607C36.269 38.892 44.5752 35.2976 44.3326 25.4857C44.0895 15.6738 36.8526 7.31898 28.1094 7.56215C19.3661 7.80532 14.1358 11.3701 8.03269 11.24C8.03269 11.24 14.8969 2.62683 25.5501 2.62683C36.2033 2.62683 47.1496 11.7219 47.1496 25.876C47.1496 40.0302 34.0679 46.8249 26.296 46.8249ZM4.06498 19.171L0.474332 20.16C0.163584 21.7258 0 23.3446 0 25C0 31.0229 2.15881 36.5488 5.75324 40.8639L9.50495 39.8148C9.50495 39.8148 2.07291 33.4034 4.06498 19.171Z" fill="#0068F8"/>
</g>
</svg>
